<?xml version="1.0" encoding="UTF-8"?>
<svg width="120px" height="120px" viewBox="0 0 120 120" version="1.1" xmlns="http://www.w3.org/2000/svg" xmlns:xlink="http://www.w3.org/1999/xlink">
    <!-- Generator: Sketch 48.1 (47250) - http://www.bohemiancoding.com/sketch -->
    <title>Group 3</title>
    <desc>Created with Sketch.</desc>
    <defs></defs>
    <g id="loop" stroke="none" stroke-width="1" fill="none" fill-rule="evenodd" transform="translate(-1173.000000, -591.000000)">
        <g id="Group-4" transform="translate(-59.000000, -71.000000)" fill="#FFDD92" fill-rule="nonzero">
            <g id="Group-3" transform="translate(1322.500000, 737.000000) rotate(-60.000000) translate(-1322.500000, -737.000000) translate(1248.000000, 637.000000)">
                <path d="M82.1379183,119.4535 L82.0042882,145.257236 C103.785981,141.609121 120.44519,122.567744 120.44519,99.6558065 C120.44519,92.5820238 118.84163,85.8641547 115.990856,79.8581128 C114.743643,77.2777392 113.318256,74.8308333 111.625609,72.5173949 L132.605522,53.1645932 C133.095499,53.7429528 133.540932,54.3658016 133.986366,54.9441612 C143.295924,67.401137 148.774754,82.8833784 148.774754,99.6558065 L148.774754,101.301907 C148.106604,133.111684 127.572125,160.02765 99.153474,170.082209 C93.6746432,171.995245 87.9285524,173.329921 82.0042882,173.952769 L81.9597449,199.311613 L48.0177201,169.503849 L36.3473651,159.271334 L56.1246079,142.054013 L82.1379183,119.4535 Z" id="Shape"></path>
                <path d="M0,98.0097061 C0.712693434,65.9329934 21.514433,38.839071 50.2894304,28.9624688 C55.5010012,27.1829008 60.9798319,25.9372032 66.6813794,25.3588436 L66.7259228,0 L100.623404,29.7632744 L112.293759,40.0402794 L92.5610597,57.2131103 L66.5477494,79.8581128 L66.6368361,54.0988664 C44.8996863,57.7914699 28.329564,76.8328472 28.329564,99.6558065 C28.329564,106.774078 29.9331242,113.491947 32.8284413,119.542479 C34.0311115,122.122852 35.5010417,124.525269 37.1491452,126.794218 L16.2137756,146.191509 C15.6347122,145.479682 15.0556488,144.723365 14.5211287,143.967049 C5.38974409,131.554562 0,116.250278 0,99.6558065 L0,98.0097061 Z" id="Shape"></path>
            </g>
        </g>
    </g>
</svg>