<?xml version="1.0" encoding="UTF-8"?>
<svg width="100px" height="323px" viewBox="0 0 100 323" version="1.1" xmlns="http://www.w3.org/2000/svg" xmlns:xlink="http://www.w3.org/1999/xlink">
    <!-- Generator: Sketch 48.1 (47250) - http://www.bohemiancoding.com/sketch -->
    <title>Artboard 3</title>
    <desc>Created with Sketch.</desc>
    <defs></defs>
    <g id="Page-1" stroke="none" stroke-width="1" fill="none" fill-rule="evenodd">
        <g id="waves" fill="#8AF0C4">
            <path d="M157.934138,276.957614 L157.815738,277.20942 L157.679777,277.076296 L108.782262,299.891301 L129.533648,255.680882 L97.7750058,276.817855 L115.427684,248.312995 L75.7324921,274.102148 L97.7750058,228.44015 L72.3880034,243.333939 L82.2565784,215.950683 L44.8605283,228.44015 L56.0980102,192.988778 L31.6381312,204.647886 L44.8605283,178.367644 L4.49643895,192.988778 L18.3628445,156.607901 L4.49643895,167.724796 L8.33871199,146.606413 L-13.5980226,156.607901 L-5.92280994,132.143294 L-36.023208,146.606413 L-27.9964352,112.487334 L-49.3420508,124.927227 L-43.2846374,97.0792174 L-66.4316101,102.011798 L-60.053748,83.7655885 L-81.0415811,83.7655885 L-69.4173877,54.7186444 L-71.5885977,52.5927475 L-67.990381,51.15279 L-66.4316101,47.2576784 L-64.1301889,49.6079934 L-35.0806876,37.9827765 L-35.0806876,58.9706096 L-16.8344784,52.5927475 L-21.7670587,75.7397203 L6.08095081,69.6823069 L-6.35894217,91.0279225 L27.7601367,83.0011497 L13.2970182,113.101548 L37.7616247,105.426335 L27.7601367,127.36307 L48.8785204,123.520797 L37.7616247,137.387202 L74.1425023,123.520797 L59.5213678,163.884886 L85.8016099,150.662489 L74.1425023,175.122368 L109.593874,163.884886 L97.1044069,201.280936 L124.487663,191.412361 L109.593874,216.799363 L155.255872,194.75685 L129.466719,234.452041 L157.971579,216.799363 L136.834606,248.558006 L181.045025,227.80662 L158.114422,276.574196 L158.315587,276.779635 L157.934138,276.957614 Z" id="Combined-Shape-Copy" transform="translate(50.001722, 168.937039) rotate(-315.000000) translate(-50.001722, -168.937039) "></path>
        </g>
    </g>
</svg>