<?xml version="1.0" encoding="UTF-8"?>
<svg width="359px" height="320px" viewBox="0 0 359 320" version="1.1" xmlns="http://www.w3.org/2000/svg" xmlns:xlink="http://www.w3.org/1999/xlink">
    <!-- Generator: Sketch 49.3 (51167) - http://www.bohemiancoding.com/sketch -->
    <title>bass</title>
    <desc>Created with Sketch.</desc>
    <defs></defs>
    <g id="Page-1" stroke="none" stroke-width="1" fill="none" fill-rule="evenodd">
        <g id="Desktop-HD-Copy-30" transform="translate(-907.000000, -480.000000)">
            <g id="bass" transform="translate(907.000000, 476.000000)">
                <path d="M325.086195,200.290819 C339.900834,232.806147 347.578755,248.789914 348.119958,248.242118 C348.986204,247.365319 350.304494,248.242118 351.145282,250.314362 C351.98607,252.386607 356.971626,254.67633 358.439221,257.752694 C359.906816,260.829059 358.439221,264.725787 354.676316,266.928106 C350.913411,269.130425 346.064087,265.444981 346.064087,262.977696 C346.064087,260.510411 344.976292,255.776113 343.615343,253.417567 C342.708044,251.845203 343.161694,250.810801 344.976292,250.314362 L322.453889,208.091782 C297.322353,276.654107 229.017984,316.156523 166.144564,296.93419 C151.643427,292.500747 138.64962,285.315959 127.45399,276.015013 L55.7158837,227.894998 C52.6016431,225.562923 49.6068786,223.190384 46.7315905,220.77738 L28.3444621,302.593372 C29.8302673,302.035413 30.5731699,302.630512 30.5731699,304.378668 C30.5731699,307.000901 30.5731699,314.345488 30.5731699,316.478644 C30.5731699,318.6118 26.3047482,324.823411 20.7151946,323.908739 C15.125641,322.994066 14.538903,314.725738 15.2629351,312.988379 C15.9869672,311.251019 19.9827436,304.391623 20.7151946,302.593372 C21.4476457,300.795121 23.435172,301.756434 23.435172,301.756434 C23.435172,301.756434 29.3555446,273.153703 41.1962899,215.948242 C27.6814368,203.682752 17.1213588,190.416538 9.5160557,176.149601 C-5.69941628,147.606599 -7.17144766,80.2696763 39.3017256,37.2893296 C70.2838412,8.63576509 106.173475,-1.52027853 146.970627,6.8211987 L224.26355,25.9075104 C232.075824,26.5495139 239.896447,28.0257877 247.6348,30.3916396 C312.989207,50.3724872 347.727212,126.237747 325.224305,199.841439 C325.17847,199.991358 325.132433,200.141151 325.086195,200.290819 Z" id="Combined-Shape" fill="#E9E9E9"></path>
                <ellipse id="Oval" fill="#D9D9D9" transform="translate(207.500000, 162.000000) rotate(17.000000) translate(-207.500000, -162.000000) " cx="207.5" cy="162" rx="118.5" ry="133"></ellipse>
            </g>
        </g>
    </g>
</svg>