<?xml version="1.0" encoding="UTF-8"?>
<svg width="311px" height="313px" viewBox="0 0 311 313" version="1.1" xmlns="http://www.w3.org/2000/svg" xmlns:xlink="http://www.w3.org/1999/xlink">
    <!-- Generator: Sketch 49.3 (51167) - http://www.bohemiancoding.com/sketch -->
    <title>Path 9</title>
    <desc>Created with Sketch.</desc>
    <defs></defs>
    <g id="Page-1" stroke="none" stroke-width="1" fill="none" fill-rule="evenodd">
        <g id="Desktop-HD-Copy-31" transform="translate(-658.000000, -103.000000)" fill="#E9E9E9">
            <path d="M683.041216,382.185197 C704.014667,407.700928 744.789831,426.912578 779.577851,409.043438 C814.365871,391.174298 824.128023,366.90053 822.513991,334.899016 C820.899958,302.897503 846.453284,313.623424 858.247343,297.639321 C870.041401,281.655217 871.928728,271.437103 864.144069,263.470474 C856.359409,255.503844 841.550725,265.9516 838.233525,263.470474 C834.916326,260.989347 832.71639,257.100511 837.638793,253.146544 C839.611565,251.732444 840.796196,249.201246 841.192684,245.55295 C896.675464,185.998182 925.807084,155.136998 928.587545,152.9694 C932.758237,149.718002 939.659519,149.926452 940.9389,148.459864 C941.791821,147.482139 942.818324,146.267612 944.018408,144.816284 C945.83216,150.826516 948.056294,152.329074 950.690812,149.323958 C954.642588,144.816284 949.459663,143.254049 946.739035,143.254049 C944.925284,143.254049 946.242543,141.211944 950.690812,137.127733 C953.633798,143.151044 956.298018,144.656872 958.683471,141.645216 C962.261652,137.127733 956.430452,135.934188 955.105291,135.934188 C954.22185,135.934188 953.78013,135.533484 953.78013,134.732074 L959.262581,129.86647 C960.561468,130.498774 961.210911,131.115946 961.210911,131.717987 C961.210911,132.621048 963.706783,138.970194 967.470877,134.732074 C971.23497,130.493953 965.777637,129.86647 964.224998,129.86647 C963.189906,129.86647 962.18521,129.303128 961.210911,128.176444 L967.470877,122.28847 C965.562718,121.62028 964.123364,120.560549 963.152814,119.109277 C961.69699,116.932369 959.251143,112.084441 956.515636,110.645489 C953.78013,109.206537 951.637178,107.411663 949.545836,107.411663 C948.151608,107.411663 945.750542,105.941108 942.342638,103 L936.420116,111.194637 C935.75996,110.698382 935.429882,110.070497 935.429882,109.310983 C935.429882,108.171712 931.923691,105.512342 929.647157,107.411663 C927.370624,109.310983 929.328194,112.207367 931.125478,112.207367 C932.323668,112.207367 933.372017,112.642293 934.270525,113.512146 L930.084226,118.156403 C929.235531,116.606576 928.411742,115.445077 927.612859,114.671904 C926.414536,113.512146 924.069309,114.124363 923.173478,115.831663 C922.277648,117.538963 923.138529,120.147717 924.514412,120.147717 C925.431667,120.147717 926.464483,120.405486 927.612859,120.921023 L922.253545,125.353977 C922.163293,123.703185 921.575446,122.68135 920.490005,122.28847 C918.861844,121.69915 916.771305,122.24629 915.864227,123.467913 C914.957149,124.689536 914.371043,129.657979 918.312294,128.917212 C916.789784,132.29646 917.715342,136.087272 916.789784,137.477033 C915.864227,138.866793 851.853162,199.976647 845.786663,206.074834 C839.720165,212.173022 814.469399,235.02015 812.655907,236.543651 C807.946785,236.655089 802.692356,235.719879 805.633548,227.494009 C808.57474,219.268139 807.853121,203.957075 792.271355,206.074834 C776.689588,208.192594 768.755287,217.881751 764.63917,226.45852 C760.523054,235.035288 761.937,244.505239 750.555938,248.573699 C739.174877,252.642158 709.704604,247.482917 684.864475,267.96965 C660.024346,288.456382 640.318505,333.884312 683.041216,382.185197 Z" id="Path-9"></path>
        </g>
    </g>
</svg>