<?xml version="1.0" encoding="UTF-8"?>
<svg width="390px" height="81px" viewBox="0 0 390 81" version="1.1" xmlns="http://www.w3.org/2000/svg" xmlns:xlink="http://www.w3.org/1999/xlink">
    <!-- Generator: Sketch 49.3 (51167) - http://www.bohemiancoding.com/sketch -->
    <title>Combined Shape</title>
    <desc>Created with Sketch.</desc>
    <defs></defs>
    <g id="Page-1" stroke="none" stroke-width="1" fill="none" fill-rule="evenodd">
        <g id="Desktop-HD-Copy-30" transform="translate(-892.000000, -171.000000)" fill="#E9E9E9">
            <path d="M1145.18732,192.742326 C1224.62317,199.13092 1282.08449,208.86772 1281.66894,216.796924 C1281.57885,218.515922 1278.77461,220.035075 1273.62551,221.340376 C1278.9461,223.241704 1281.76211,225.110276 1281.66894,226.88799 C1281.25437,234.798436 1223.36395,238.476889 1143.98564,236.558343 C1118.61519,245.590708 1100.8185,253.477338 1080.86986,251.454399 C1060.69136,249.408152 1043.49017,241.21318 1023.29814,230.096211 C946.566616,223.706517 891.609346,214.222273 892.015776,206.467133 C892.105865,204.748135 894.910107,203.228982 900.059202,201.923681 C894.738617,200.022353 891.92261,198.153781 892.015776,196.376067 C892.426013,188.548271 949.11734,184.864496 1027.21807,186.64741 C1051.99083,176.463772 1068.66573,170.725472 1084.57513,171.94873 C1098.68956,173.033975 1125.81322,183.273994 1145.18732,192.742326 Z" id="Combined-Shape"></path>
        </g>
    </g>
</svg>