<?xml version="1.0" encoding="UTF-8"?>
<svg width="314px" height="300px" viewBox="0 0 314 300" version="1.1" xmlns="http://www.w3.org/2000/svg" xmlns:xlink="http://www.w3.org/1999/xlink">
    <!-- Generator: Sketch 49.3 (51167) - http://www.bohemiancoding.com/sketch -->
    <title>Combined Shape</title>
    <desc>Created with Sketch.</desc>
    <defs></defs>
    <g id="Page-1" stroke="none" stroke-width="1" fill="none" fill-rule="evenodd">
        <g id="Desktop-HD-Copy-31" transform="translate(-558.000000, -51.000000)" fill="#E9E9E9">
            <path d="M559.209523,349.638024 C557.186085,346.732923 560.70975,344.035851 565.472953,339.788869 C570.236156,335.541886 667.264224,248.465938 718.977024,197.950185 C770.689824,147.434432 840.430102,67.5066857 846.61432,60.0031276 C852.798538,52.4995694 857.007284,48.7417244 861.477876,52.4358771 C865.948468,56.1300298 869.569829,52.4358771 869.569829,52.4358771 C869.569829,52.4358771 871.373433,52.4358771 871.373433,53.8219426 C871.373433,54.7459863 869.724511,57.3917437 866.426665,61.7592149 C869.167119,64.0588772 866.441968,69.4693024 858.251212,77.9904904 C836.593873,101.245777 746.301462,191.056487 587.373978,347.422619 C582.947249,343.647891 579.762997,340.644461 577.821222,338.412327 C569.490041,346.445589 561.232961,352.543124 559.209523,349.638024 Z M857.402258,68.9631921 C856.043172,66.1634742 853.524254,57.9374277 842.745724,71.6421706 C831.967194,85.3469134 757.328685,167.831046 731.545617,193.877821 C714.356905,211.242338 669.205978,255.312768 596.092835,326.08911 C597.197846,331.467692 601.583097,330.359094 609.248587,322.763315 C620.746822,311.369648 855.465795,71.993486 857.402258,68.9631921 Z" id="Combined-Shape"></path>
        </g>
    </g>
</svg>