<?xml version="1.0" encoding="UTF-8"?>
<svg width="60px" height="48px" viewBox="0 0 60 48" version="1.1" xmlns="http://www.w3.org/2000/svg" xmlns:xlink="http://www.w3.org/1999/xlink">
    <!-- Generator: Sketch 49.3 (51167) - http://www.bohemiancoding.com/sketch -->
    <title>Mask</title>
    <desc>Created with Sketch.</desc>
    <defs>
        <path d="M1321,358 L1273,358 C1270.04,358 1267.66667,360.373333 1267.66667,363.333333 L1267.66667,395.333333 C1267.66667,398.266667 1270.04,400.666667 1273,400.666667 L1286.33333,400.666667 L1286.33333,406 L1307.66667,406 L1307.66667,400.666667 L1321,400.666667 C1323.93333,400.666667 1326.30667,398.266667 1326.30667,395.333333 L1326.33333,363.333333 C1326.33333,360.373333 1323.93333,358 1321,358 L1321,358 Z M1321,395.333333 L1273,395.333333 L1273,363.333333 L1321,363.333333 L1321,395.333333 L1321,395.333333 Z M1307.66667,376.666667 L1307.66667,382 L1299.66667,382 L1299.66667,390 L1294.33333,390 L1294.33333,382 L1286.33333,382 L1286.33333,376.666667 L1294.33333,376.666667 L1294.33333,368.666667 L1299.66667,368.666667 L1299.66667,376.666667 L1307.66667,376.666667 L1307.66667,376.666667 Z" id="path-1"></path>
    </defs>
    <g id="Page-1" stroke="none" stroke-width="1" fill="none" fill-rule="evenodd">
        <g id="Desktop-HD-Copy-32" transform="translate(-1267.000000, -358.000000)">
            <mask id="mask-2" fill="white">
                <use xlink:href="#path-1"></use>
            </mask>
            <use id="Mask" fill="#5469FE" xlink:href="#path-1"></use>
        </g>
    </g>
</svg>