<?xml version="1.0" encoding="UTF-8"?>
<svg width="48px" height="48px" viewBox="0 0 48 48" version="1.1" xmlns="http://www.w3.org/2000/svg" xmlns:xlink="http://www.w3.org/1999/xlink">
    <!-- Generator: Sketch 49.3 (51167) - http://www.bohemiancoding.com/sketch -->
    <title>Mask</title>
    <desc>Created with Sketch.</desc>
    <defs>
        <path d="M225,252 C225,247.28 222.28,243.226667 218.333333,241.253333 L218.333333,247.146667 L224.866667,253.68 C224.946667,253.146667 225,252.586667 225,252 L225,252 Z M231.666667,252 C231.666667,254.506667 231.133333,256.853333 230.226667,259.04 L234.253333,263.066667 C236.013333,259.76 237,256 237,252 C237,240.586667 229.026667,231.04 218.333333,228.613333 L218.333333,234.106667 C226.04,236.4 231.666667,243.546667 231.666667,252 L231.666667,252 Z M192.386667,228 L189,231.386667 L201.613333,244 L189,244 L189,260 L199.666667,260 L213,273.333333 L213,255.386667 L224.333333,266.72 C222.546667,268.106667 220.546667,269.2 218.333333,269.866667 L218.333333,275.36 C222.013333,274.533333 225.346667,272.826667 228.173333,270.533333 L233.613333,276 L237,272.613333 L213,248.613333 L192.386667,228 L192.386667,228 Z M213,230.666667 L207.426667,236.24 L213,241.813333 L213,230.666667 L213,230.666667 Z" id="path-1"></path>
    </defs>
    <g id="Page-1" stroke="none" stroke-width="1" fill="none" fill-rule="evenodd">
        <g id="Desktop-HD-Copy-18" transform="translate(-189.000000, -228.000000)">
            <mask id="mask-2" fill="white">
                <use xlink:href="#path-1"></use>
            </mask>
            <use id="Mask" fill="#FFFFFF" xlink:href="#path-1"></use>
        </g>
    </g>
</svg>